<svg width="16" height="16" viewBox="0 0 16 16" fill="none" xmlns="http://www.w3.org/2000/svg">
<mask id="mask0_234_41" style="mask-type:alpha" maskUnits="userSpaceOnUse" x="0" y="0" width="16" height="16">
<rect width="16" height="16" fill="#D9D9D9"/>
</mask>
<g mask="url(#mask0_234_41)">
<path d="M2.66659 14.6666C2.29992 14.6666 1.98603 14.5361 1.72492 14.275C1.46381 14.0139 1.33325 13.7 1.33325 13.3333V7.53331C1.33325 7.26665 1.40547 7.0222 1.54992 6.79998C1.69436 6.57776 1.89436 6.41109 2.14992 6.29998L5.06659 5.06665C5.28881 4.97776 5.49992 4.99442 5.69992 5.11665C5.89992 5.23887 5.99992 5.4222 5.99992 5.66665V5.99998L8.41658 5.03331C8.63881 4.94442 8.84714 4.96665 9.04158 5.09998C9.23603 5.23331 9.33325 5.41665 9.33325 5.64998V6.66665H14.6666V13.3333C14.6666 13.7 14.536 14.0139 14.2749 14.275C14.0138 14.5361 13.6999 14.6666 13.3333 14.6666H2.66659ZM2.66659 13.3333H13.3333V7.99998H7.99992V6.63331L4.66658 7.96665V6.66665L2.66659 7.54998V13.3333ZM7.33325 12H8.66658V9.33331H7.33325V12ZM4.66658 12H5.99992V9.33331H4.66658V12ZM9.99992 12H11.3333V9.33331H9.99992V12ZM14.6666 6.66665H11.3333L11.9333 1.91665C11.9555 1.74998 12.0277 1.61109 12.1499 1.49998C12.2721 1.38887 12.4166 1.33331 12.5833 1.33331H13.4166C13.5833 1.33331 13.7277 1.38887 13.8499 1.49998C13.9721 1.61109 14.0444 1.74998 14.0666 1.91665L14.6666 6.66665Z" fill="#98908A"/>
</g>
</svg>
