<svg width="16" height="16" viewBox="0 0 16 16" fill="none" xmlns="http://www.w3.org/2000/svg">
<path d="M1.3335 13.3334V3.50004C1.3335 3.38893 1.35572 3.28893 1.40016 3.20004C1.44461 3.11115 1.51127 3.03337 1.60016 2.96671L4.26683 0.966707C4.38905 0.877818 4.52238 0.833374 4.66683 0.833374C4.81127 0.833374 4.94461 0.877818 5.06683 0.966707L7.7335 2.96671C7.82238 3.03337 7.88905 3.11115 7.9335 3.20004C7.97794 3.28893 8.00016 3.38893 8.00016 3.50004V4.66671H14.0002C14.1891 4.66671 14.3474 4.7306 14.4752 4.85837C14.6029 4.98615 14.6668 5.14449 14.6668 5.33337V13.3334C14.6668 13.5223 14.6029 13.6806 14.4752 13.8084C14.3474 13.9362 14.1891 14 14.0002 14H2.00016C1.81127 14 1.65294 13.9362 1.52516 13.8084C1.39738 13.6806 1.3335 13.5223 1.3335 13.3334ZM2.66683 12.6667H4.00016V11.3334H2.66683V12.6667ZM2.66683 10H4.00016V8.66671H2.66683V10ZM2.66683 7.33337H4.00016V6.00004H2.66683V7.33337ZM2.66683 4.66671H4.00016V3.33337H2.66683V4.66671ZM5.3335 4.66671H6.66683V3.33337H5.3335V4.66671ZM5.3335 12.6667H13.3335V6.00004H5.3335V12.6667ZM10.0002 7.33337H11.3335C11.5224 7.33337 11.6807 7.39726 11.8085 7.52504C11.9363 7.65282 12.0002 7.81115 12.0002 8.00004C12.0002 8.18893 11.9363 8.34726 11.8085 8.47504C11.6807 8.60282 11.5224 8.66671 11.3335 8.66671H10.0002C9.81127 8.66671 9.65294 8.60282 9.52516 8.47504C9.39738 8.34726 9.3335 8.18893 9.3335 8.00004C9.3335 7.81115 9.39738 7.65282 9.52516 7.52504C9.65294 7.39726 9.81127 7.33337 10.0002 7.33337ZM10.0002 10H11.3335C11.5224 10 11.6807 10.0639 11.8085 10.1917C11.9363 10.3195 12.0002 10.4778 12.0002 10.6667C12.0002 10.8556 11.9363 11.0139 11.8085 11.1417C11.6807 11.2695 11.5224 11.3334 11.3335 11.3334H10.0002C9.81127 11.3334 9.65294 11.2695 9.52516 11.1417C9.39738 11.0139 9.3335 10.8556 9.3335 10.6667C9.3335 10.4778 9.39738 10.3195 9.52516 10.1917C9.65294 10.0639 9.81127 10 10.0002 10ZM8.00016 8.00004C8.00016 8.18893 7.93627 8.34726 7.8085 8.47504C7.68072 8.60282 7.52238 8.66671 7.3335 8.66671C7.14461 8.66671 6.98627 8.60282 6.8585 8.47504C6.73072 8.34726 6.66683 8.18893 6.66683 8.00004C6.66683 7.81115 6.73072 7.65282 6.8585 7.52504C6.98627 7.39726 7.14461 7.33337 7.3335 7.33337C7.52238 7.33337 7.68072 7.39726 7.8085 7.52504C7.93627 7.65282 8.00016 7.81115 8.00016 8.00004ZM7.3335 11.3334C7.14461 11.3334 6.98627 11.2695 6.8585 11.1417C6.73072 11.0139 6.66683 10.8556 6.66683 10.6667C6.66683 10.4778 6.73072 10.3195 6.8585 10.1917C6.98627 10.0639 7.14461 10 7.3335 10C7.52238 10 7.68072 10.0639 7.8085 10.1917C7.93627 10.3195 8.00016 10.4778 8.00016 10.6667C8.00016 10.8556 7.93627 11.0139 7.8085 11.1417C7.68072 11.2695 7.52238 11.3334 7.3335 11.3334Z" fill="#98908A"/>
</svg>
